# xmcd
#
# Track frame offsets: 
#        150
#        26380
#        45488
#        72848
#        90400
#        112365
#        142725
#        168043
#        197148
#        216825
#
# Disc length: 3117 seconds
#
# Revision: 0
# Processed by: cddbd v1.5.2PL0 Copyright (c) Steve Scherf et al.
# Submitted via: ExactAudioCopy v1.0b3
#
DISCID=810c2b0a
DTITLE=Huong Lan - Tinh Ca Yeu Em
DYEAR=1992
DGENRE=
TTITLE0=Ngo hon qua dem
TTITLE1=Yeu nguoi nhu the do
TTITLE2=Khong bao gio quen anh
TTITLE3=Co do yeu dau
TTITLE4=Xin tra lai thoi gian
TTITLE5=Vong gac dem suong
TTITLE6=Chuyen do khong em
TTITLE7=Tam su voi anh
TTITLE8=Gio cuon may troi
TTITLE9=Mong cho
EXTD=
EXTT0=
EXTT1=
EXTT2=
EXTT3=
EXTT4=
EXTT5=
EXTT6=
EXTT7=
EXTT8=
EXTT9=
PLAYORDER=
